<svg id="instagram" xmlns="http://www.w3.org/2000/svg" width="31.792" height="31.792" viewBox="0 0 31.792 31.792">
  <path id="Tracé_5" data-name="Tracé 5" d="M213.085,210.043A3.043,3.043,0,1,1,210.043,207,3.043,3.043,0,0,1,213.085,210.043Zm0,0" transform="translate(-194.147 -194.147)"/>
  <path id="Tracé_6" data-name="Tracé 6" d="M150.083,137.588a3.023,3.023,0,0,0-1.732-1.732,5.05,5.05,0,0,0-1.695-.314c-.963-.044-1.251-.053-3.688-.053s-2.726.009-3.688.053a5.053,5.053,0,0,0-1.695.314,3.024,3.024,0,0,0-1.733,1.732,5.052,5.052,0,0,0-.314,1.695c-.044.962-.053,1.251-.053,3.688s.009,2.726.053,3.688a5.05,5.05,0,0,0,.314,1.695,3.023,3.023,0,0,0,1.732,1.732,5.043,5.043,0,0,0,1.695.314c.962.044,1.251.053,3.688.053s2.726-.009,3.688-.053a5.043,5.043,0,0,0,1.695-.314,3.023,3.023,0,0,0,1.732-1.732,5.054,5.054,0,0,0,.314-1.695c.044-.963.053-1.251.053-3.688s-.009-2.726-.053-3.688A5.044,5.044,0,0,0,150.083,137.588Zm-7.115,10.07a4.687,4.687,0,1,1,4.687-4.687A4.687,4.687,0,0,1,142.968,147.658Zm4.872-8.464a1.1,1.1,0,1,1,1.1-1.1A1.1,1.1,0,0,1,147.84,139.194Zm0,0" transform="translate(-127.072 -127.075)"/>
  <path id="Tracé_7" data-name="Tracé 7" d="M15.9,0a15.9,15.9,0,1,0,15.9,15.9A15.9,15.9,0,0,0,15.9,0Zm9.073,19.659a6.7,6.7,0,0,1-.424,2.216,4.667,4.667,0,0,1-2.67,2.67,6.7,6.7,0,0,1-2.215.424c-.973.044-1.284.055-3.763.055s-2.79-.011-3.763-.055a6.7,6.7,0,0,1-2.215-.424,4.667,4.667,0,0,1-2.67-2.67,6.7,6.7,0,0,1-.424-2.215c-.045-.974-.055-1.285-.055-3.763s.01-2.79.055-3.763a6.7,6.7,0,0,1,.424-2.216,4.67,4.67,0,0,1,2.67-2.67,6.7,6.7,0,0,1,2.216-.424c.973-.044,1.284-.055,3.763-.055s2.79.011,3.763.055a6.7,6.7,0,0,1,2.216.424,4.669,4.669,0,0,1,2.67,2.67,6.7,6.7,0,0,1,.424,2.216c.044.973.055,1.284.055,3.763S25.013,18.686,24.969,19.659Zm0,0"/>
</svg>
