<svg xmlns="http://www.w3.org/2000/svg" width="31.792" height="31.792" viewBox="0 0 31.792 31.792">
  <path id="twitter_1_" data-name="twitter (1)" d="M15.9,0a15.9,15.9,0,1,0,15.9,15.9A15.9,15.9,0,0,0,15.9,0Zm7.258,12.394q.011.235.01.472A10.31,10.31,0,0,1,12.783,23.246h0a10.327,10.327,0,0,1-5.593-1.639,7.42,7.42,0,0,0,.87.05A7.321,7.321,0,0,0,12.593,20.1a3.653,3.653,0,0,1-3.409-2.534,3.636,3.636,0,0,0,1.648-.063A3.649,3.649,0,0,1,7.9,13.923c0-.016,0-.031,0-.047a3.623,3.623,0,0,0,1.653.456,3.652,3.652,0,0,1-1.13-4.871,10.359,10.359,0,0,0,7.521,3.812,3.651,3.651,0,0,1,6.217-3.327,7.318,7.318,0,0,0,2.317-.886,3.663,3.663,0,0,1-1.6,2.018,7.277,7.277,0,0,0,2.1-.575A7.415,7.415,0,0,1,23.154,12.394Zm0,0"/>
</svg>
